<svg width="639" height="648" viewBox="0 0 639 648" fill="none" xmlns="http://www.w3.org/2000/svg">
<g clip-path="url(#clip0_7_10480)">
<path d="M563.635 246.702C527.854 105.866 404.221 4.20177 259.101 0.124104C182.381 -2.03163 101.65 23.4381 42.872 112.566C-62.2002 271.891 49.329 381.99 127.084 434.307C164.649 459.633 198.498 490.086 227.649 524.783C280.17 587.169 381.209 664.693 501.541 543.225C588.758 455.185 587.469 340.513 563.635 246.702Z" fill="#F2F2F2"/>
<path d="M624.823 570.991C624.823 598.75 494.408 648 333.534 648C172.659 648 57.5138 548.194 57.5138 520.436C57.5138 492.677 172.659 547.477 333.534 547.477C494.408 547.477 624.823 543.232 624.823 570.991Z" fill="#3F3D56"/>
<path opacity="0.1" d="M624.823 570.991C624.823 598.75 494.408 648 333.534 648C172.659 648 57.5138 548.194 57.5138 520.436C57.5138 492.677 172.659 547.477 333.534 547.477C494.408 547.477 624.823 543.232 624.823 570.991Z" fill="black"/>
<path d="M624.823 570.697C624.823 598.456 494.408 620.959 333.534 620.959C172.659 620.959 57.5138 548.194 57.5138 520.436C57.5138 492.677 172.659 520.436 333.534 520.436C494.408 520.436 624.823 542.939 624.823 570.697Z" fill="#9C27B0"/>
<g opacity="0.7">
<path opacity="0.7" d="M615.18 151.287C604.615 171.815 571.127 196.004 550.619 185.428C530.111 174.852 530.35 133.516 540.915 112.988C545.99 103.132 554.768 95.6976 565.319 92.3197C575.869 88.9417 587.328 89.8969 597.175 94.9752C607.022 100.053 614.451 108.839 617.828 119.399C621.204 129.959 620.252 141.43 615.18 151.287Z" fill="#6C63FF"/>
<path opacity="0.7" d="M552.354 190.856C551.695 189.57 550.651 188.523 549.367 187.861C548.083 187.199 546.625 186.956 545.196 187.165L548.884 180L556.042 183.691L552.354 190.856Z" fill="#6C63FF"/>
<path opacity="0.7" d="M547.137 183.44C547.959 184.578 549.039 185.503 550.289 186.141C551.538 186.779 552.921 187.111 554.323 187.109" stroke="#2F2E41" stroke-width="2" stroke-miterlimit="10"/>
<path opacity="0.4" d="M609.379 128.461C612.052 123.268 610.714 117.249 606.39 115.02C602.066 112.79 596.394 115.192 593.72 120.386C591.047 125.58 592.385 131.598 596.709 133.828C601.033 136.058 606.705 133.655 609.379 128.461Z" fill="white"/>
<path opacity="0.7" d="M550.427 185.685L519.264 264.182" stroke="#2F2E41" stroke-width="2" stroke-miterlimit="10"/>
</g>
<path d="M621.759 277.21C598.627 300.57 542.789 319.081 519.452 295.926C496.115 272.771 514.116 216.718 537.249 193.358C548.358 182.147 563.462 175.811 579.237 175.744C595.013 175.678 610.169 181.885 621.374 193.002C632.578 204.119 638.912 219.235 638.985 235.026C639.057 250.817 632.861 265.991 621.759 277.21Z" fill="#FF6584"/>
<path d="M519.488 304.044C519.143 302.015 518.171 300.144 516.711 298.695C515.25 297.246 513.373 296.29 511.343 295.962L519.417 287.808L527.562 295.891L519.488 304.044Z" fill="#FF6584"/>
<path d="M515.572 291.734C516.203 293.631 517.274 295.351 518.698 296.753C520.123 298.155 521.859 299.198 523.765 299.797" stroke="#2F2E41" stroke-width="2" stroke-miterlimit="10"/>
<path d="M517.898 297.896L441.195 375.354" stroke="#2F2E41" stroke-width="2" stroke-miterlimit="10"/>
<path opacity="0.4" d="M623.639 243.715C629.492 237.804 630.247 229.055 625.327 224.173C620.406 219.291 611.673 220.125 605.82 226.035C599.968 231.946 599.212 240.694 604.132 245.577C609.053 250.459 617.786 249.625 623.639 243.715Z" fill="white"/>
<path d="M549.458 201.533C541.835 233.527 503.759 278.404 471.797 270.774C439.834 263.144 426.089 205.896 433.711 173.902C437.38 158.547 446.99 145.279 460.429 137.014C473.868 128.749 490.035 126.163 505.377 129.826C520.719 133.488 533.981 143.099 542.247 156.545C550.513 169.991 553.107 186.173 549.458 201.533Z" fill="#6C63FF"/>
<path d="M476.044 277.689C474.695 276.136 472.894 275.044 470.893 274.566C468.893 274.088 466.793 274.249 464.888 275.026L467.549 263.859L478.705 266.522L476.044 277.689Z" fill="#6C63FF"/>
<path d="M466.304 269.213C467.828 270.505 469.637 271.417 471.582 271.873C473.527 272.329 475.552 272.316 477.491 271.835" stroke="#2F2E41" stroke-width="2" stroke-miterlimit="10"/>
<path opacity="0.4" d="M533.663 171.944C535.591 163.849 531.691 155.983 524.952 154.374C518.213 152.766 511.187 158.024 509.258 166.118C507.33 174.213 511.229 182.08 517.968 183.688C524.707 185.297 531.734 180.039 533.663 171.944Z" fill="white"/>
<path d="M471.619 273.252L446.344 379.34" stroke="#2F2E41" stroke-width="2" stroke-miterlimit="10"/>
<g opacity="0.8">
<path opacity="0.8" d="M195.175 482.066C178.56 498.25 138.934 510.598 122.766 493.966C106.598 477.334 120.009 438.021 136.624 421.837C140.575 417.989 145.244 414.957 150.366 412.915C155.487 410.873 160.96 409.861 166.472 409.936C171.984 410.012 177.428 411.173 182.491 413.354C187.555 415.535 192.14 418.693 195.985 422.647C199.829 426.602 202.858 431.276 204.898 436.402C206.938 441.529 207.949 447.007 207.874 452.525C207.799 458.042 206.638 463.491 204.46 468.56C202.281 473.628 199.126 478.218 195.175 482.066Z" fill="#6C63FF"/>
<path opacity="0.8" d="M122.688 499.693C122.47 498.257 121.809 496.925 120.797 495.884C119.785 494.843 118.473 494.145 117.044 493.888L122.844 488.239L128.487 494.044L122.688 499.693Z" fill="#6C63FF"/>
<path opacity="0.8" d="M120.082 490.959C120.502 492.305 121.236 493.533 122.223 494.54C123.21 495.547 124.422 496.305 125.759 496.751" stroke="#2F2E41" stroke-width="2" stroke-miterlimit="10"/>
<path opacity="0.4" d="M196.927 458.461C201.131 454.366 201.776 448.204 198.367 444.698C194.958 441.191 188.786 441.668 184.582 445.762C180.378 449.857 179.734 456.019 183.143 459.526C186.552 463.033 192.723 462.556 196.927 458.461Z" fill="white"/>
</g>
<path d="M375.506 141.008H387.179C394.837 141.008 402.181 144.053 407.596 149.474C413.011 154.894 416.053 162.246 416.053 169.911V210.499H346.631V169.911C346.631 166.116 347.378 162.357 348.829 158.85C350.28 155.344 352.407 152.158 355.088 149.474C357.77 146.79 360.953 144.661 364.456 143.208C367.959 141.756 371.714 141.008 375.506 141.008Z" fill="#2F2E41"/>
<path d="M342.372 321.949L333.611 340.387C333.611 340.387 326.47 365.157 334.562 367.804C342.653 370.452 344.233 342.386 344.233 342.386L350.934 323.801L342.372 321.949Z" fill="#FFB9B9"/>
<path opacity="0.1" d="M342.372 321.949L333.611 340.387C333.611 340.387 326.47 365.157 334.562 367.804C342.653 370.452 344.233 342.386 344.233 342.386L350.934 323.801L342.372 321.949Z" fill="black"/>
<path d="M344.032 293.091L332.951 331.91L350.496 341.152V294.939L344.032 293.091Z" fill="#575A89"/>
<path d="M374.041 190.035C374.041 190.035 373.117 204.824 371.271 204.824C369.424 204.824 365.731 222.385 365.731 222.385L381.428 232.552L400.818 214.991L395.278 201.127C395.278 201.127 392.508 195.581 393.431 190.035C394.355 184.49 374.041 190.035 374.041 190.035Z" fill="#FFB9B9"/>
<path opacity="0.1" d="M374.041 190.035C374.041 190.035 373.117 204.824 371.271 204.824C369.424 204.824 365.731 222.385 365.731 222.385L381.428 232.552L400.818 214.991L395.278 201.127C395.278 201.127 392.508 195.581 393.431 190.035C394.355 184.49 374.041 190.035 374.041 190.035Z" fill="black"/>
<path d="M432.212 336.993L434.059 357.327C434.059 357.327 440.522 382.282 448.833 380.434C457.143 378.585 444.216 353.63 444.216 353.63L440.522 334.22L432.212 336.993Z" fill="#FFB9B9"/>
<path d="M392.508 537.558C392.508 537.558 398.048 571.756 394.355 578.226C390.661 584.696 398.048 585.62 398.048 585.62L420.208 580.075V569.908C420.208 569.908 412.822 536.634 412.822 534.786C412.822 532.937 392.508 537.558 392.508 537.558Z" fill="#FFB9B9"/>
<path d="M347.263 384.131C347.263 384.131 353.727 450.678 363.884 471.936C374.041 493.194 383.274 551.422 387.891 552.347C392.508 553.271 427.595 546.801 432.212 543.104C436.829 539.407 400.818 449.753 400.818 448.829C400.818 447.905 392.508 365.645 392.508 365.645L381.428 347.16L347.263 384.131Z" fill="#2F2E41"/>
<path opacity="0.1" d="M347.263 384.131C347.263 384.131 353.727 450.678 363.884 471.936C374.041 493.194 383.274 551.422 387.891 552.347C392.508 553.271 427.595 546.801 432.212 543.104C436.829 539.407 400.818 449.753 400.818 448.829C400.818 447.905 392.508 365.645 392.508 365.645L381.428 347.16L347.263 384.131Z" fill="black"/>
<path d="M400.818 576.378C400.818 576.378 391.584 571.756 389.738 574.529L382.351 585.62C382.351 585.62 350.957 600.408 362.037 602.257C373.117 604.105 394.355 604.105 397.125 602.257C399.895 600.408 430.365 583.772 429.442 582.847C428.519 581.923 421.132 562.514 420.208 564.362C419.285 566.211 406.358 580.075 400.818 576.378Z" fill="#2F2E41"/>
<path d="M245.694 497.815C245.694 497.815 224.457 512.603 214.3 509.831C204.143 507.058 214.3 530.164 214.3 530.164L232.767 540.331L238.308 535.71C238.308 535.71 257.698 509.831 266.008 508.906C274.318 507.982 245.694 497.815 245.694 497.815Z" fill="#FFB9B9"/>
<path d="M341.723 328.675L345.417 348.084L276.165 453.451C276.165 453.451 234.614 495.042 238.308 499.664C242.001 504.285 265.085 531.089 270.625 527.392C276.165 523.695 404.512 385.055 403.588 366.57C402.665 348.084 372.194 312.962 372.194 312.962L341.723 326.826V328.675Z" fill="#2F2E41"/>
<path d="M218.917 516.3C218.917 516.3 227.227 507.058 222.611 506.134C217.418 505.217 212.177 504.6 206.914 504.285C205.067 504.285 180.136 491.345 178.29 495.967C176.443 500.588 189.37 524.619 196.757 527.392C204.143 530.164 230.921 549.574 230.921 549.574C230.921 549.574 244.771 537.558 242.924 534.786C241.078 532.013 215.224 526.467 218.917 516.3Z" fill="#2F2E41"/>
<path d="M381.428 199.278C393.666 199.278 403.588 189.347 403.588 177.096C403.588 164.845 393.666 154.913 381.428 154.913C369.189 154.913 359.267 164.845 359.267 177.096C359.267 189.347 369.189 199.278 381.428 199.278Z" fill="#FFB9B9"/>
<path d="M386.044 210.369C386.044 210.369 370.347 211.293 365.731 208.521C361.114 205.748 350.957 246.415 350.957 246.415L344.493 300.023C344.493 300.023 343.57 306.493 344.493 310.19C345.417 313.887 335.26 308.341 338.953 318.508C342.647 328.675 336.183 333.296 342.647 334.221C349.11 335.145 383.274 321.281 383.274 321.281L398.971 239.021L403.588 205.748L386.044 210.369Z" fill="#D0CDE1"/>
<path d="M372.39 202.861C372.39 202.861 363.884 201.127 361.114 202.975C358.344 204.824 348.187 218.688 348.187 222.385C348.187 226.082 344.493 266.749 344.493 270.446C344.493 274.143 341.723 293.553 341.723 295.401C341.723 297.25 344.092 305.195 344.092 305.195L350.034 294.477C350.034 294.477 348.187 280.613 354.65 258.431C361.114 236.249 372.39 202.861 372.39 202.861Z" fill="#575A89"/>
<path d="M381.428 216.839C381.428 216.839 393.763 197.43 394.52 199.278C395.278 201.127 409.128 203.899 409.128 203.899C409.128 203.899 434.059 221.46 432.212 228.854C430.365 236.249 417.438 291.704 417.438 291.704C417.438 291.704 405.435 320.357 414.668 340.69C423.902 361.024 412.822 368.418 412.822 368.418C412.822 368.418 405.435 372.115 407.282 375.812C409.128 379.509 386.044 393.373 383.274 383.206C380.504 373.04 346.34 312.038 353.727 289.856C361.114 267.674 381.428 216.839 381.428 216.839Z" fill="#575A89"/>
<path d="M427.595 226.082C427.595 226.082 437.752 245.491 435.906 248.264C434.059 251.037 442.369 267.674 442.369 267.674C441.794 269.16 441.794 270.808 442.369 272.295C443.292 275.068 448.833 287.083 448.833 291.704C448.833 296.326 447.909 311.114 448.833 317.584C449.756 324.054 461.759 339.766 451.603 340.69C441.446 341.615 424.825 349.933 425.749 340.69C426.672 331.448 429.442 309.265 425.749 305.568C422.055 301.871 419.285 301.871 421.132 297.25C422.979 292.629 412.822 280.613 412.822 280.613L427.595 226.082Z" fill="#575A89"/>
<path d="M399.944 171.631H364.895L356.959 153.375H405.897L399.944 171.631Z" fill="#2F2E41"/>
<path d="M360.296 184.99C361.232 184.718 361.405 182.472 360.681 179.973C359.958 177.474 358.612 175.668 357.676 175.94C356.74 176.211 356.567 178.457 357.291 180.956C358.014 183.455 359.36 185.261 360.296 184.99Z" fill="#FFB9B9"/>
<path d="M404.806 180.956C405.529 178.457 405.356 176.211 404.42 175.94C403.484 175.668 402.139 177.474 401.415 179.973C400.692 182.472 400.864 184.718 401.8 184.99C402.737 185.261 404.082 183.456 404.806 180.956Z" fill="#FFB9B9"/>
<path d="M611.93 532.572C611.93 554.042 599.18 561.538 583.452 561.538C583.087 561.538 582.721 561.533 582.361 561.528C581.63 561.508 580.908 561.473 580.197 561.424C566 560.42 554.975 552.538 554.975 532.572C554.975 511.914 581.343 485.847 583.334 483.908C583.334 483.908 583.335 483.908 583.336 483.908C583.336 483.908 583.337 483.907 583.337 483.907C583.338 483.906 583.338 483.906 583.338 483.905C583.339 483.905 583.339 483.904 583.339 483.903C583.413 483.834 583.452 483.795 583.452 483.795C583.452 483.795 611.93 511.103 611.93 532.572Z" fill="#F2F2F2"/>
<path d="M582.415 558.254L592.828 543.688L582.39 559.851L582.361 561.528C581.629 561.508 580.908 561.473 580.197 561.424L581.318 539.95L581.308 539.782L581.328 539.752L581.437 537.72L570.97 521.516L581.467 536.197L581.491 536.632L582.341 520.404L573.38 503.657L582.45 517.551L583.334 483.908L583.339 483.795V483.903L583.191 510.436L592.112 499.919L583.151 512.72L582.919 527.252L591.247 513.309L582.884 529.388L582.751 537.468L594.843 518.06L582.706 540.286L582.415 558.254Z" fill="#3F3D56"/>
</g>
<defs>
<clipPath id="clip0_7_10480">
<rect width="639" height="648" fill="white"/>
</clipPath>
</defs>
</svg>
